<svg xmlns="http://www.w3.org/2000/svg" viewBox="0 0 640 512" fill="#D32F2F" width="48px" height="48px">
    <path d="M512.3 128c0-18.6-12.7-34.5-30.1-39.6L437.1 71.7c-17.2-5.1-35.6.6-45.7 15.4L352 146.3V128c0-17.7-14.3-32-32-32H128c-17.7 0-32 14.3-32 32v128c0 17.7 14.3 32 32 32h32c17.7 0 32-14.3 32-32V203.8l56.4 83.3c10.1 14.8 28.5 20.3 45.7 15.3l45.1-12.8c17.2-4.9 30.1-20.8 30.1-39.4V128zM176 192a32 32 0 1 1 0-64 32 32 0 1 1 0 64zm160 32a16 16 0 1 1 32 0 16 16 0 1 1 -32 0zM128 416a64 64 0 1 1 128 0 64 64 0 1 1 -128 0zm320 0a64 64 0 1 1 128 0 64 64 0 1 1 -128 0z"/>
</svg>