<svg xmlns="http://www.w3.org/2000/svg" viewBox="0 0 24 24" fill="#1E88E5" width="48px" height="48px"><path d="M0 0h24v24H0z" fill="none"/><path d="M19.43 12.98c.06-.41.07-.84.07-1.28 0-4.07-3.05-7.44-7-7.93V2h-3v1.98C5.05 4.56 2 7.93 2 12c0 .44.01.87.07 1.28L2 17h1.5c.83 0 1.5-.67 1.5-1.5S4.33 14 3.5 14H3c.1-.94.4-1.8.88-2.56.9-1.4 2.3-2.44 3.88-2.88V12h-2v2h2v1h-3v2h3v1h-2v2h2c2.21 0 4-1.79 4-4s-1.79-4-4-4h-3V9.5c2.42.41 4.22 2.45 4.9 4.78.64-.17 1.32-.28 2.03-.28 2.76 0 5 2.24 5 5s-2.24 5-5 5-5-2.24-5-5c0-.91.25-1.76.68-2.5h1.32c.83 0 1.5-.67 1.5-1.5s-.67-1.5-1.5-1.5H12c.1-.94.4-1.8.88-2.56.46-.73.99-1.39 1.6-1.95.83-.78 1.8-1.4 2.87-1.8.06.41.07.84.07 1.28 0 .44-.01.87-.07 1.28zM17 18c-1.66 0-3-1.34-3-3s1.34-3 3-3 3 1.34 3 3-1.34 3-3 3z"/></svg>